<?xml version="1.0" encoding="UTF-8"?>
<svg version="1.1" xmlns="http://www.w3.org/2000/svg" width="400" height="400">
<path d="M0 0 C132 0 264 0 400 0 C400 132 400 264 400 400 C268 400 136 400 0 400 C0 268 0 136 0 0 Z " fill="#020B1C" transform="translate(0,0)"/>
<path d="M0 0 C0 64.35 0 128.7 0 195 C25.68193487 189.29290336 48.27461151 180.16759913 63.09863281 157.30566406 C75.44865466 137.41146145 78.60047526 118.3895356 78.609375 95.34375 C78.62438722 93.10216089 78.64112064 90.86058271 78.65948486 88.61901855 C78.70282904 82.773208 78.72308386 76.92754655 78.73822021 71.081604 C78.75791103 65.09467877 78.7998669 59.10791181 78.83984375 53.12109375 C78.91478864 41.41408491 78.96323278 29.70719104 79 18 C68.77 18 58.54 18 48 18 C48.02356567 22.41995361 48.02356567 22.41995361 48.04760742 26.92919922 C48.09741874 36.68805623 48.13049507 46.44691901 48.15543652 56.20586967 C48.17106177 62.12006251 48.19224273 68.03412459 48.22631836 73.94824219 C48.25902369 79.66057742 48.27687662 85.37278722 48.28463173 91.08520889 C48.29015519 93.25959369 48.30094102 95.43397198 48.31719017 97.60830307 C48.33911283 100.66463563 48.34196072 103.72045636 48.34057617 106.77685547 C48.351362 107.66662582 48.36214783 108.55639618 48.3732605 109.47312927 C48.30514806 123.45813573 41.78049448 138.01784584 32 148 C31.34 148 30.68 148 30 148 C30 99.16 30 50.32 30 0 C52.11 0 74.22 0 97 0 C97.08032734 28.67685924 97.08032734 28.67685924 97.10050774 42.9186058 C97.11155809 50.59778083 97.12555127 58.27691205 97.15087891 65.95605469 C97.1730877 72.69285074 97.18459098 79.42958958 97.18975449 86.1664238 C97.19343121 88.72824219 97.20061061 91.29005818 97.21146011 93.85185623 C97.34248428 126.09070469 97.34248428 126.09070469 91.8125 141.0625 C91.50425293 141.91392578 91.19600586 142.76535156 90.87841797 143.64257812 C86.3796512 155.72772484 80.08800616 165.94072353 72 176 C71.13761719 177.09441406 71.13761719 177.09441406 70.2578125 178.2109375 C52.51387894 199.69043603 25.95450523 210.63068685 -1 214 C-7.27 214 -13.54 214 -20 214 C-20 149.65 -20 85.3 -20 19 C-38.7384356 22.74768712 -53.52497501 27.51898355 -68 40 C-69.01320313 40.77923828 -69.01320313 40.77923828 -70.046875 41.57421875 C-78.98284559 48.6693794 -85.15852758 58.86141375 -90.375 68.875 C-90.684375 69.44919678 -90.99375 70.02339355 -91.3125 70.61499023 C-98.62727546 85.38964403 -98.60328999 101.0122984 -98.609375 117.09375 C-98.6243863 119.38017938 -98.64111954 121.66659803 -98.65948486 123.95300293 C-98.70283929 129.91718087 -98.72308619 135.88121263 -98.73822021 141.84552002 C-98.75790725 147.95308971 -98.7998636 154.06050415 -98.83984375 160.16796875 C-98.9147998 172.1119572 -98.96323701 184.05583288 -99 196 C-89.1 196 -79.2 196 -69 196 C-69.02618408 193.14537109 -69.05236816 190.29074219 -69.0793457 187.34960938 C-69.16261566 177.86227073 -69.2175907 168.3749149 -69.25906086 158.88730621 C-69.28502878 153.14130644 -69.32019036 147.39568466 -69.37719727 141.64990234 C-69.43197678 136.0931279 -69.46151653 130.53671442 -69.47438622 124.97969055 C-69.48354429 122.87163113 -69.50142511 120.76358893 -69.52865028 118.65568542 C-69.75421622 100.4483809 -67.48200234 84.87441212 -56 70 C-54.35 68.68 -52.7 67.36 -51 66 C-51 114.84 -51 163.68 -51 214 C-72.78 214 -94.56 214 -117 214 C-117.12049101 184.90365356 -117.12049101 184.90365356 -117.1507616 170.43622398 C-117.16732647 162.64053172 -117.18829028 154.84493671 -117.22631836 147.04931641 C-117.25643268 140.87298936 -117.27562465 134.69673602 -117.28226548 128.52033758 C-117.28614092 125.25678591 -117.2967317 121.99349137 -117.31719017 118.72999573 C-117.41748886 102.05511295 -117.17515785 86.20827595 -111.3125 70.375 C-111.05758789 69.67536133 -110.80267578 68.97572266 -110.54003906 68.25488281 C-99.91619075 40.26732544 -77.68342944 19.62598359 -50.7109375 7.453125 C-33.57499761 0.7430517 -18.9116384 0 0 0 Z " fill="#5786E6" transform="translate(235,93)"/>
<path d="M0 0 C0 69.3 0 138.6 0 210 C-6.27 210 -12.54 210 -19 210 C-19.1159588 186.64237415 -19.20508231 163.28481811 -19.25906086 139.9269619 C-19.28479504 129.08043975 -19.31985378 118.23410022 -19.37719727 107.38769531 C-19.42717905 97.92919684 -19.45932576 88.47083069 -19.47044247 79.01220381 C-19.47693627 74.00819675 -19.49209797 69.0045681 -19.52865028 64.00068283 C-19.56284366 59.28103865 -19.57300631 54.5619251 -19.56553841 49.84216881 C-19.5669026 48.11935851 -19.57669508 46.39652859 -19.59602737 44.67382622 C-19.74141709 31.03762186 -18.09058487 18.54378901 -8.875 7.75 C-8.44574219 7.20988281 -8.01648438 6.66976562 -7.57421875 6.11328125 C-2.61956437 0 -2.61956437 0 0 0 Z " fill="#859ADC" transform="translate(87,96)"/>
<path d="M0 0 C2.64 0 5.28 0 8 0 C5.94931091 3.10895754 3.87575368 6.17305737 1.703125 9.19921875 C-7.66409318 22.38355461 -14.35007389 36.96904207 -17 53 C-17.17051376 53.97228043 -17.34102753 54.94456085 -17.51670837 55.94630432 C-18.25361125 61.18182843 -18.17739254 66.44081375 -18.20532227 71.71850586 C-18.21522186 72.88020294 -18.22512146 74.04190002 -18.23532104 75.23880005 C-18.26681295 79.06412749 -18.29164475 82.88946732 -18.31640625 86.71484375 C-18.33698641 89.37285271 -18.35793683 92.03085616 -18.37937927 94.68885803 C-18.42916566 100.96076842 -18.47415623 107.23270357 -18.51740164 113.5046621 C-18.57175483 121.35014641 -18.63254909 129.19557916 -18.69335938 137.04101562 C-18.80173934 151.02730402 -18.90041525 165.01364008 -19 179 C2.78 179 24.56 179 47 179 C46.67 130.49 46.34 81.98 46 32 C31.77358259 49.07170089 29.2459779 65.22968941 29.29296875 86.78125 C29.27982428 88.93316022 29.26451174 91.08505818 29.24714661 93.23693848 C29.2076055 98.84607568 29.19712622 104.45488787 29.19311523 110.06414795 C29.18372509 115.80979073 29.14627531 121.55524714 29.11132812 127.30078125 C29.04706711 138.53389004 29.01616892 149.76671896 29 161 C19.1 161 9.2 161 -1 161 C-1.11351933 147.88135722 -1.20501326 134.76304726 -1.25906086 121.64402199 C-1.28501714 115.55057978 -1.320157 109.45749462 -1.37719727 103.36425781 C-1.43201881 97.47031583 -1.46152521 91.57671459 -1.47438622 85.68253708 C-1.48353687 83.44774394 -1.50140246 81.21296683 -1.52865028 78.97832108 C-1.72555807 62.14090384 -0.27182037 46.45334353 7.9375 31.375 C8.27523437 30.7253125 8.61296875 30.075625 8.9609375 29.40625 C11.54880328 24.54301543 14.47921342 20.2249439 18 16 C18.99 16.33 19.98 16.66 21 17 C21.495 19.97 21.495 19.97 22 23 C16.25 25 16.25 25 14 25 C14.495 29.455 14.495 29.455 15 34 C14.34 34 13.68 34 13 34 C12.7525 34.763125 12.505 35.52625 12.25 36.3125 C11 39 11 39 9 40.375 C6.00765518 42.80628017 5.70385871 45.28874498 5 49 C5.29519768 51.7336432 5.29519768 51.7336432 6 54 C6 54.66 6 55.32 6 56 C5.18638 56.70230743 4.37276001 57.40461487 3.53448486 58.12820435 C0.34957643 61.73698747 0.32627466 64.36533401 0.44824219 68.94873047 C0.44911835 69.73491257 0.44999451 70.52109467 0.45089722 71.33110046 C0.45946722 73.92719484 0.50325974 76.52146542 0.546875 79.1171875 C0.55875771 80.93497359 0.56826132 82.75277664 0.57550049 84.57058716 C0.60025105 89.36231015 0.65408166 94.1532576 0.71496582 98.94464111 C0.79517583 105.65363563 0.83679884 112.36298946 0.88165283 119.07229614 C0.90553604 122.63977759 0.94057841 126.20685842 0.98504639 129.7741394 C1.09082965 139.58326438 0.78575176 149.21913842 0 159 C8.91 159 17.82 159 27 159 C27 129.96 27 100.92 27 71 C26.01 71 25.02 71 24 71 C24.495 69.02 24.495 69.02 25 67 C25.99 67.495 25.99 67.495 27 68 C26.773125 67.13375 26.54625 66.2675 26.3125 65.375 C25.92874673 61.23046463 27.1038914 59.64636268 29 56 C29.5284649 53.32373738 29.76510394 50.72479426 30 48 C30.66 48 31.32 48 32 48 C31.505 44.04 31.505 44.04 31 40 C31.94875 39.938125 32.8975 39.87625 33.875 39.8125 C34.90625 39.544375 35.9375 39.27625 37 39 C38.27587495 36.6859613 38.27587495 36.6859613 39 34 C39.96873032 32.64377755 40.96434215 31.30582947 42 30 C42.33 29.34 42.66 28.68 43 28 C44.32 28 45.64 28 47 28 C47 28.66 47 29.32 47 30 C47.66 30 48.32 30 49 30 C48.67 79.83 48.34 129.66 48 181 C-18 182 -18 182 -25 180 C-24.34 179.67 -23.68 179.34 -23 179 C-23 178.01 -23 177.02 -23 176 C-22.34 175.67 -21.68 175.34 -21 175 C-21 140.68 -21 106.36 -21 71 C-21.99 71.495 -21.99 71.495 -23 72 C-23.33 68.7 -23.66 65.4 -24 62 C-23.01 62.33 -22.02 62.66 -21 63 C-20.93268677 62.10075806 -20.93268677 62.10075806 -20.86401367 61.18334961 C-20.65102545 58.43360008 -20.41940924 55.68571584 -20.1875 52.9375 C-20.11724609 51.99455078 -20.04699219 51.05160156 -19.97460938 50.08007812 C-19.47885523 44.38882059 -18.40456446 40.15924407 -16 35 C-16.020625 33.7625 -16.04125 32.525 -16.0625 31.25 C-16 28 -16 28 -14 26.0625 C-13.34 25.711875 -12.68 25.36125 -12 25 C-11.34 25.33 -10.68 25.66 -10 26 C-9.88785156 25.28457031 -9.77570313 24.56914062 -9.66015625 23.83203125 C-8.95543995 20.80884002 -7.86712202 18.43677312 -6.4375 15.6875 C-5.98246094 14.80449219 -5.52742188 13.92148438 -5.05859375 13.01171875 C-4.70925781 12.34785156 -4.35992187 11.68398437 -4 11 C-3.34 11 -2.68 11 -2 11 C-1.90912109 10.06027344 -1.90912109 10.06027344 -1.81640625 9.1015625 C-1.73261719 8.28429687 -1.64882812 7.46703125 -1.5625 6.625 C-1.48128906 5.81289062 -1.40007812 5.00078125 -1.31640625 4.1640625 C-1 2 -1 2 0 0 Z " fill="#0B2350" transform="translate(137,128)"/>
<path d="M0 0 C0.04666293 25.39029212 0.08196079 50.78057784 0.10362434 76.17090416 C0.11394921 87.95932827 0.12803258 99.74772577 0.15087891 111.53613281 C0.17077582 121.8075543 0.18370763 132.07895653 0.18817699 142.35039675 C0.19079066 147.79206705 0.19695888 153.23368225 0.21146011 158.67533493 C0.22498566 163.7920783 0.22923288 168.90874361 0.22621536 174.02550316 C0.22676779 175.90813432 0.23077505 177.79076796 0.23841095 179.67338371 C0.24829366 182.23453223 0.24599352 184.79538211 0.24050903 187.35653687 C0.24633472 188.1094461 0.2521604 188.86235533 0.25816262 189.63808 C0.22824242 194.77175758 0.22824242 194.77175758 -2 197 C-2.66 196.67 -3.32 196.34 -4 196 C-3.83923477 195.47243103 -3.67846954 194.94486206 -3.51283264 194.40130615 C-2.87676478 191.42295895 -2.83600802 188.62573384 -2.79467773 185.57910156 C-2.77473251 184.27805481 -2.75478729 182.97700806 -2.73423767 181.63653564 C-2.71725582 180.2212333 -2.70037693 178.80592972 -2.68359375 177.390625 C-2.66301245 175.93902001 -2.64201567 174.48742086 -2.62062073 173.03582764 C-2.56552149 169.22187028 -2.51605885 165.40785993 -2.46777344 161.59381104 C-2.41746951 157.69921166 -2.36182993 153.80468891 -2.30664062 149.91015625 C-2.19920772 142.27350245 -2.09772999 134.63678479 -2 127 C-2.66 127 -3.32 127 -4 127 C-4.04254356 125.00045254 -4.04080783 122.99958364 -4 121 C-3.67 120.67 -3.34 120.34 -3 120 C-2.92851801 118.64756083 -2.91600546 117.29165633 -2.9375 115.9375 C-2.958125 114.638125 -2.97875 113.33875 -3 112 C-3.33 112 -3.66 112 -4 112 C-4.17264965 97.26722997 -4.17264965 97.26722997 -3.5 92.625 C-2.9195413 88.41667443 -2.68430101 84.24336579 -3 80 C-3.495 79.505 -3.495 79.505 -4 79 C-4.0991657 77.37742456 -4.13079777 75.75060169 -4.1328125 74.125 C-4.13410156 73.14015625 -4.13539063 72.1553125 -4.13671875 71.140625 C-4.13285156 70.10421875 -4.12898438 69.0678125 -4.125 68 C-4.13080078 66.44539063 -4.13080078 66.44539063 -4.13671875 64.859375 C-4.13542969 63.87453125 -4.13414062 62.8896875 -4.1328125 61.875 C-4.13168457 60.96492188 -4.13055664 60.05484375 -4.12939453 59.1171875 C-4 57 -4 57 -3 56 C-2.90688111 54.49581261 -2.88253972 52.98728644 -2.88647461 51.48022461 C-2.88658791 50.03884377 -2.88658791 50.03884377 -2.88670349 48.56834412 C-2.89186478 47.523564 -2.89702606 46.47878387 -2.90234375 45.40234375 C-2.90446617 43.80635094 -2.90446617 43.80635094 -2.90663147 42.17811584 C-2.91224936 38.76454917 -2.92480489 35.351047 -2.9375 31.9375 C-2.94251269 29.62955824 -2.947076 27.32161545 -2.95117188 25.01367188 C-2.9622246 19.34242574 -2.97898013 13.67121747 -3 8 C-3.99 8.495 -3.99 8.495 -5 9 C-5.99 8.01 -6.98 7.02 -8 6 C-8.99 6.66 -9.98 7.32 -11 8 C-13.6875 7.625 -13.6875 7.625 -16 7 C-16 6.34 -16 5.68 -16 5 C-18.31 5.66 -20.62 6.32 -23 7 C-23 7.66 -23 8.32 -23 9 C-27.455 9.495 -27.455 9.495 -32 10 C-29.87775112 5.75550225 -23.24587299 4.54838029 -19 3 C-12.49050803 0.9934333 -6.82396686 -0.06173038 0 0 Z " fill="#011843" transform="translate(215,112)"/>
<path d="M0 0 C10.23 0 20.46 0 31 0 C31.04524437 13.01332542 31.08191255 26.02659832 31.10362434 39.0399847 C31.11404664 45.08308276 31.12817753 51.12612406 31.15087891 57.16918945 C31.17266259 63.00470599 31.18458031 68.84016805 31.18975449 74.67572212 C31.19344032 76.89837056 31.20063778 79.12101613 31.21146011 81.34364128 C31.22604836 84.46475467 31.22797487 87.58564493 31.22705078 90.70678711 C31.23424133 91.61885422 31.24143188 92.53092133 31.24884033 93.47062683 C31.23036021 99.26607406 30.43624366 104.38114074 29 110 C28.67 110 28.34 110 28 110 C28.06851669 109.39351624 28.13703339 108.78703247 28.20762634 108.16217041 C29.2763302 97.33096297 29.22866526 86.48342491 29.31640625 75.609375 C29.33701266 73.45175817 29.35801 71.29414505 29.37937927 69.13653564 C29.43421963 63.49455793 29.48379449 57.85254613 29.53222656 52.21051025 C29.58272171 46.43848688 29.63826063 40.66651219 29.69335938 34.89453125 C29.80047476 23.59639447 29.90155371 12.29821565 30 1 C20.76 1 11.52 1 2 1 C2.33 35.98 2.66 70.96 3 107 C2.01 107 1.02 107 0 107 C-1.65 111.62 -3.3 116.24 -5 121 C-4.34 121.33 -3.68 121.66 -3 122 C-3.78375 122.61875 -4.5675 123.2375 -5.375 123.875 C-8.69771114 126.52596853 -8.69771114 126.52596853 -11 130 C-13.0625 130.625 -13.0625 130.625 -15 131 C-15 127.28825246 -14.03018031 126.41277414 -11.8125 123.5 C-4.12428879 112.82365812 -0.71257274 102.05040332 -0.68115234 89.00390625 C-0.67110672 88.03713455 -0.6610611 87.07036285 -0.65071106 86.07429504 C-0.62001354 82.90370231 -0.60288134 79.7331935 -0.5859375 76.5625 C-0.56721505 74.35432215 -0.54764084 72.14615137 -0.5272522 69.93798828 C-0.47603887 64.14471618 -0.43635537 58.35142092 -0.39910889 52.55804443 C-0.35900146 46.63889892 -0.3079399 40.71984889 -0.2578125 34.80078125 C-0.16118104 23.20058141 -0.07774859 11.60034179 0 0 Z " fill="#011641" transform="translate(283,111)"/>
<path d="M0 0 C0.99 0.33 1.98 0.66 3 1 C3.33 2.98 3.66 4.96 4 7 C-1.75 9 -1.75 9 -4 9 C-3.67 11.97 -3.34 14.94 -3 18 C-3.66 18 -4.32 18 -5 18 C-5.2475 18.763125 -5.495 19.52625 -5.75 20.3125 C-7 23 -7 23 -9 24.375 C-11.99234482 26.80628017 -12.29614129 29.28874498 -13 33 C-12.70480232 35.7336432 -12.70480232 35.7336432 -12 38 C-12 38.66 -12 39.32 -12 40 C-13.22042999 41.05346115 -13.22042999 41.05346115 -14.46551514 42.12820435 C-17.65042357 45.73698747 -17.67372534 48.36533401 -17.55175781 52.94873047 C-17.55088165 53.73491257 -17.55000549 54.52109467 -17.54910278 55.33110046 C-17.54053278 57.92719484 -17.49674026 60.52146542 -17.453125 63.1171875 C-17.44124229 64.93497359 -17.43173868 66.75277664 -17.42449951 68.57058716 C-17.39974895 73.36231015 -17.34591834 78.1532576 -17.28503418 82.94464111 C-17.20482417 89.65363563 -17.16320116 96.36298946 -17.11834717 103.07229614 C-17.09446396 106.63977759 -17.05942159 110.20685842 -17.01495361 113.7741394 C-16.90917035 123.58326438 -17.21424824 133.21913842 -18 143 C-9.09 143 -0.18 143 9 143 C9 117.26 9 91.52 9 65 C9.33 65 9.66 65 10 65 C10 91.07 10 117.14 10 144 C0.43 144 -9.14 144 -19 144 C-19.11352762 131.01174118 -19.20501793 118.02381866 -19.25906086 105.03517342 C-19.28501514 99.00226343 -19.32015116 92.96971418 -19.37719727 86.93701172 C-19.43202618 81.10142408 -19.4615267 75.26618067 -19.47438622 69.43035507 C-19.48353559 67.21789008 -19.50139854 65.00544123 -19.52865028 62.79312515 C-19.72674781 46.02535576 -18.23670986 30.38885484 -10.0625 15.375 C-9.72476563 14.7253125 -9.38703125 14.075625 -9.0390625 13.40625 C-6.45119672 8.54301543 -3.52078658 4.2249439 0 0 Z " fill="#011434" transform="translate(155,144)"/>
<path d="M0 0 C0.99 0 1.98 0 3 0 C3.144375 1.134375 3.28875 2.26875 3.4375 3.4375 C3.61171478 6.80777201 3.61171478 6.80777201 5 8 C5.09779295 10.60501536 5.12994636 13.18350022 5.12025452 15.78895569 C5.12110894 16.61468769 5.12196337 17.44041969 5.12284368 18.29117388 C5.12450102 21.0796355 5.11897299 23.86803799 5.11352539 26.65649414 C5.11324355 28.6467641 5.1134012 30.63703417 5.1139679 32.62730408 C5.11425598 38.0485686 5.10835746 43.4698112 5.10139394 48.8910706 C5.09516224 54.5498921 5.09455675 60.20871405 5.09336853 65.86753845 C5.09025467 76.59146492 5.08204054 87.31538125 5.07201904 98.03930324 C5.0608596 110.24465513 5.05534788 122.45000749 5.05032361 134.6553632 C5.03985797 159.77024777 5.02225748 184.88512332 5 210 C4.01 210.33 3.02 210.66 2 211 C1.99576806 209.92471354 1.99153612 208.84942707 1.98717594 207.74155617 C1.88411336 181.61200378 1.77538199 155.48247972 1.66066074 129.35297585 C1.60531517 116.71709759 1.55183101 104.08121652 1.50268555 91.4453125 C1.45986003 80.43554548 1.4135862 69.42579937 1.36312145 58.41606462 C1.33650734 52.58318573 1.31165396 46.75031102 1.29092598 40.91740799 C1.27138188 35.43295257 1.24724483 29.94853698 1.21950912 24.46411705 C1.21012687 22.44604272 1.20245584 20.42795964 1.19658089 18.40987206 C1.18833963 15.6648564 1.1740686 12.91993795 1.15821838 10.17495728 C1.15724028 9.36757476 1.15626217 8.56019225 1.15525442 7.72834361 C1.2132398 3.73406047 1.2132398 3.73406047 0 0 Z " fill="#0F1E44" transform="translate(85,95)"/>
<path d="M0 0 C2.47471513 2.47471513 2.23807269 3.88051293 2.25816262 7.25722754 C2.24942409 8.3632457 2.24942409 8.3632457 2.24050903 9.49160767 C2.24221788 10.27327502 2.24392673 11.05494237 2.24568737 11.86029661 C2.24899581 14.49370738 2.23795643 17.12686639 2.22705078 19.76025391 C2.22648696 21.64229832 2.22680266 23.52434317 2.22793579 25.40638733 C2.22851144 30.52804462 2.21672292 35.64960892 2.20278788 40.77124453 C2.19031575 46.11908787 2.1891128 51.46693317 2.18673706 56.81478882 C2.18051192 66.9472511 2.16408715 77.07967041 2.14403808 87.21211374 C2.12171119 98.7451874 2.11069374 110.27826308 2.10064721 121.81135297 C2.0797218 145.54092664 2.04412462 169.27045911 2 193 C17.345 192.505 17.345 192.505 33 192 C33 192.33 33 192.66 33 193 C21.76856312 195.0520733 11.66120734 195 0 195 C0 130.65 0 66.3 0 0 Z " fill="#6185D4" transform="translate(215,112)"/>
<path d="M0 0 C0 48.84 0 97.68 0 148 C-21.78 148 -43.56 148 -66 148 C-66.04016367 118.54218055 -66.04016367 118.54218055 -66.05025387 103.98393917 C-66.05579366 96.11274042 -66.06282515 88.24155227 -66.07543945 80.37036133 C-66.08542246 74.13808785 -66.09186204 67.90582238 -66.09408849 61.67354113 C-66.09538946 58.37515776 -66.09896491 55.07680256 -66.10573006 51.77842522 C-66.11299073 48.09177163 -66.11398881 44.40516545 -66.11352539 40.71850586 C-66.11712067 39.63093491 -66.12071594 38.54336395 -66.12442017 37.4228363 C-66.11727852 32.17097777 -65.92144288 27.17377782 -65 22 C-64.67 22 -64.34 22 -64 22 C-64 62.92 -64 103.84 -64 146 C-43.54 146.33 -23.08 146.66 -2 147 C-1.67 100.47 -1.34 53.94 -1 6 C-1.66 6 -2.32 6 -3 6 C-3.268125 6.598125 -3.53625 7.19625 -3.8125 7.8125 C-4.99849039 9.99721913 -6.22056482 11.29470795 -8 13 C-8.66 13.99 -9.32 14.98 -10 16 C-10 11.69482643 -9.54199271 10.8231574 -7.1875 7.4375 C-6.66542969 6.67308594 -6.14335937 5.90867188 -5.60546875 5.12109375 C-1.72928177 0 -1.72928177 0 0 0 Z " fill="#6184D3" transform="translate(184,159)"/>
<path d="M0 0 C22.11 0 44.22 0 67 0 C67.08032734 28.67685924 67.08032734 28.67685924 67.10050774 42.9186058 C67.11155809 50.59778083 67.12555127 58.27691205 67.15087891 65.95605469 C67.1730877 72.69285074 67.18459098 79.42958958 67.18975449 86.1664238 C67.19343121 88.72824219 67.20061061 91.29005818 67.21146011 93.85185623 C67.32752764 122.41058215 67.32752764 122.41058215 65 131 C64.34 131.66 63.68 132.32 63 133 C62.81251349 128.78155357 63.12438022 125.10672668 63.99362183 120.97038269 C65.10301782 115.03009157 65.26928895 109.31578657 65.22705078 103.28637695 C65.22734283 102.17286362 65.22763489 101.05935028 65.22793579 99.91209412 C65.22655436 96.2707409 65.21104939 92.62959824 65.1953125 88.98828125 C65.19157815 86.44809582 65.18873317 83.90790895 65.18673706 81.36772156 C65.1799089 75.38983115 65.16418327 69.41202964 65.14403808 63.43417472 C65.12158415 56.62148418 65.11066192 49.80878986 65.10064721 42.99607146 C65.07981387 28.99734006 65.0446976 14.99867412 65 1 C57.22861467 1.08435454 49.4574352 1.17921863 41.68635082 1.28752708 C38.07796771 1.33748759 34.46961383 1.38381744 30.86108398 1.421875 C27.37908872 1.45873124 23.89733823 1.5050917 20.41555214 1.55806351 C18.43972886 1.58563386 16.463776 1.6033425 14.48783875 1.62094116 C13.28682022 1.64081085 12.0858017 1.66068054 10.84838867 1.68115234 C9.25954109 1.70113785 9.25954109 1.70113785 7.63859558 1.7215271 C4.77033327 1.81777733 4.77033327 1.81777733 2 4 C1.55140062 6.60426017 1.55140062 6.60426017 1.63923645 9.70730591 C1.63511246 10.92169342 1.63098846 12.13608093 1.6267395 13.38726807 C1.63735761 14.7401145 1.64826205 16.09295872 1.65942383 17.44580078 C1.66026969 18.86479677 1.65979576 20.28379408 1.65809631 21.70278931 C1.65723332 25.56216621 1.67490802 29.42126507 1.69581819 33.28057718 C1.71453447 37.31113188 1.71633143 41.34169249 1.71989441 45.37228394 C1.72922977 53.00796155 1.75386362 60.64351077 1.78394288 68.27913177 C1.81744061 76.97065127 1.83396123 85.6621768 1.84902918 94.35374475 C1.88041195 112.23590271 1.9332013 130.11794104 2 148 C1.34 148 0.68 148 0 148 C0 99.16 0 50.32 0 0 Z " fill="#4A6DB2" transform="translate(265,93)"/>
<path d="M0 0 C1.32 0.66 2.64 1.32 4 2 C3.814375 2.598125 3.62875 3.19625 3.4375 3.8125 C2.77906313 6.16408762 2.77906313 6.16408762 4 9 C3.74681941 11.3013078 3.42439029 13.59515868 3.06835938 15.8828125 C1.80816286 24.9204333 1.78729072 33.83097771 1.87782288 42.94104004 C1.92880361 48.20275534 1.94188491 53.46465164 1.9609375 58.7265625 C1.96589485 59.86033325 1.9708522 60.994104 1.97595978 62.16223145 C2.02755675 75.82906448 1.91379175 89.49468994 1.79874039 103.16090393 C1.78127072 105.24752531 1.76425629 107.3341499 1.74740601 109.42077637 C1.68507608 117.13901428 1.62060844 124.85723203 1.55461597 132.57543945 C1.49254635 139.84594425 1.4328318 147.11646793 1.37324238 154.38699341 C1.25131003 169.25801677 1.12665345 184.12901603 1 199 C2.98 198.01 2.98 198.01 5 197 C5 195.68 5 194.36 5 193 C12.75 193.875 12.75 193.875 15 195 C16.99960012 195.039992 19.00047242 195.04346799 21 195 C17.93526297 197.04315802 15.73045705 197.74260315 12.1875 198.625 C11.17042969 198.88539063 10.15335938 199.14578125 9.10546875 199.4140625 C6 200 6 200 0 200 C0 135.65 0 71.3 0 5 C-7.26 5 -14.52 5 -22 5 C-22 4.67 -22 4.34 -22 4 C-14.58851545 2.71702277 -7.52719602 1.74484081 0 2 C0 1.34 0 0.68 0 0 Z " fill="#001845" transform="translate(235,88)"/>
<path d="M0 0 C0.33 0 0.66 0 1 0 C1 32.01 1 64.02 1 97 C10.9 97 20.8 97 31 97 C31 64.99 31 32.98 31 0 C31.33 0 31.66 0 32 0 C32.61429243 24.17632816 33.11079592 48.35236778 33.17724609 72.53717041 C33.18408457 74.76321705 33.19434105 76.9892558 33.20800781 79.215271 C33.2257227 82.32848725 33.23016419 85.44142711 33.23046875 88.5546875 C33.23761398 89.48579346 33.24475922 90.41689941 33.25212097 91.3762207 C33.24908463 92.22385986 33.24604828 93.07149902 33.24291992 93.94482422 C33.24434494 94.68384979 33.24576996 95.42287537 33.24723816 96.18429565 C33 98 33 98 31 100 C28.01904297 100.22705078 28.01904297 100.22705078 24.2421875 100.1953125 C23.57913605 100.1924826 22.91608459 100.18965271 22.23294067 100.18673706 C20.11344417 100.17553435 17.99436896 100.15043051 15.875 100.125 C14.43880818 100.11497028 13.00260975 100.10584441 11.56640625 100.09765625 C8.04413372 100.075595 4.52210797 100.04106494 1 100 C-0.72439077 96.55121847 -0.1285325 92.57188932 -0.11352539 88.77685547 C-0.11367142 87.8207135 -0.11381744 86.86457153 -0.1139679 85.87945557 C-0.1132694 82.70867673 -0.1054799 79.53795612 -0.09765625 76.3671875 C-0.09579185 74.17286206 -0.09436805 71.97853621 -0.09336853 69.78421021 C-0.0895451 64.00065976 -0.07971628 58.2171343 -0.06866455 52.43359375 C-0.0584467 46.53515969 -0.05387011 40.6367216 -0.04882812 34.73828125 C-0.03809388 23.15884317 -0.02101953 11.57942366 0 0 Z " fill="#4466B2" transform="translate(135,192)"/>
<path d="M0 0 C0.66 0.33 1.32 0.66 2 1 C1.64671285 1.79942331 1.29342569 2.59884663 0.92943287 3.42249489 C-3.14364741 13.51474243 -3.71905552 22.40881344 -3.65942383 33.20458984 C-3.66789558 34.98989473 -3.67854811 36.77519037 -3.69119263 38.56047058 C-3.71912888 43.36333846 -3.71690489 48.16575652 -3.70889878 52.96868086 C-3.70575599 58.0042209 -3.7308597 63.03962208 -3.75285339 68.07510376 C-3.79018257 77.59093355 -3.80243478 87.10662047 -3.8054778 96.62251627 C-3.81018074 107.46429918 -3.8431436 118.30594004 -3.87837565 129.14766002 C-3.95016402 151.43175723 -3.98680352 173.71579606 -4 196 C-4.33 196 -4.66 196 -5 196 C-5.95834223 175.68924049 -6.15055652 155.42367328 -6.1343255 135.09508061 C-6.13174502 130.8356389 -6.13415393 126.57619903 -6.13571167 122.3167572 C-6.13751256 115.1977397 -6.13517768 108.0787327 -6.13037109 100.9597168 C-6.12488406 92.73802174 -6.1267313 84.51635132 -6.1321975 76.29465681 C-6.13673106 69.18922339 -6.13737943 62.08379738 -6.13475883 54.97836298 C-6.13320357 50.75324659 -6.13298268 46.52814183 -6.13629532 42.3030262 C-6.13917919 38.35225 -6.1371889 34.40150591 -6.13140106 30.45073318 C-6.13007832 29.00270198 -6.13045937 27.55466808 -6.13266373 26.10663795 C-6.13539298 24.13233664 -6.13136492 22.15802942 -6.12698364 20.18373108 C-6.12660662 19.07946305 -6.12622959 17.97519503 -6.12584114 16.83746433 C-6.0163717 14.36914893 -5.62733109 12.36793819 -5 10 C-5.37907282 7.81296615 -5.37907282 7.81296615 -6 6 C-5.38125 5.7525 -4.7625 5.505 -4.125 5.25 C-1.64931313 3.79371361 -1.04874998 2.62187494 0 0 Z " fill="#010F2A" transform="translate(72,110)"/>
<path d="M0 0 C1.30097122 0.02024734 2.60194244 0.04049469 3.94233704 0.06135559 C5.35243597 0.09875993 6.76252597 0.1365028 8.17260742 0.17456055 C9.62275191 0.20261331 11.07292338 0.22930163 12.52311707 0.25468445 C16.32926672 0.32495626 20.13476768 0.41370195 23.94042969 0.50634766 C27.82814674 0.59770393 31.71619288 0.67151868 35.60424805 0.74682617 C43.22511999 0.89701263 50.84539185 1.06672418 58.46557617 1.2487793 C58.46557617 1.5787793 58.46557617 1.9087793 58.46557617 2.2487793 C36.35557617 2.2487793 14.24557617 2.2487793 -8.53442383 2.2487793 C-8.53442383 50.7587793 -8.53442383 99.2687793 -8.53442383 149.2487793 C-9.19442383 148.9187793 -9.85442383 148.5887793 -10.53442383 148.2487793 C-10.53350204 147.52579021 -10.53258024 146.80280113 -10.53163052 146.05790329 C-10.50955467 128.47316349 -10.49300219 110.8884272 -10.48261166 93.30367661 C-10.47745343 84.79985812 -10.47041972 76.29604888 -10.45898438 67.79223633 C-10.44902311 60.38108414 -10.44256695 52.96993865 -10.44033533 45.55877995 C-10.43903069 41.63395309 -10.43596032 37.70914538 -10.42869377 33.78432465 C-10.42191083 30.09081381 -10.41981152 26.39733003 -10.42131615 22.70381355 C-10.42090949 20.70070679 -10.41552612 18.69760298 -10.41000366 16.69450378 C-10.41137833 15.50260941 -10.41275299 14.31071503 -10.41416931 13.08270264 C-10.41324752 12.04660732 -10.41232573 11.01051201 -10.411376 9.94301987 C-10.52084895 7.54601325 -10.84525623 5.53728114 -11.53442383 3.2487793 C-7.53512588 0.41039373 -4.87005169 -0.10402052 0 0 Z " fill="#00143F" transform="translate(273.534423828125,90.751220703125)"/>
<path d="M0 0 C0.66 0.33 1.32 0.66 2 1 C1.91596837 16.8818578 1.82078689 32.76360756 1.71247292 48.64531612 C1.66243404 56.02011496 1.61599043 63.39490317 1.578125 70.76977539 C1.54509729 77.2006264 1.50520724 83.63139273 1.45720994 90.06215006 C1.43205162 93.46453965 1.41023943 96.86687385 1.39665604 100.26933098 C1.37973293 104.07542869 1.35068239 107.88125764 1.31884766 111.68725586 C1.31668747 112.80503922 1.31452728 113.92282257 1.31230164 115.07447815 C1.25297569 120.64019884 0.86535415 125.753428 -0.52488136 131.15284061 C-1.08469525 133.2067536 -1.08469525 133.2067536 -1.5 136.1875 C-2.21173527 140.19101087 -3.49274396 143.84458346 -5.125 147.5625 C-6.15660933 149.94203618 -6.15660933 149.94203618 -5.875 152.375 C-6.05773088 156.21234839 -7.59539285 159.03096738 -10 162 C-12.625 163.1875 -12.625 163.1875 -15 164 C-16.34410262 166.01735205 -16.34410262 166.01735205 -17 168 C-17.66 167.67 -18.32 167.34 -19 167 C-18.49210937 166.175 -17.98421875 165.35 -17.4609375 164.5 C-6.3897886 146.09397873 -0.91085941 126.85553995 -0.79467773 105.3515625 C-0.77982834 103.63805855 -0.77982834 103.63805855 -0.76467896 101.88993835 C-0.73323145 98.13497959 -0.70837302 94.38000819 -0.68359375 90.625 C-0.66300975 88.01326173 -0.64201291 85.40152669 -0.62062073 82.78979492 C-0.5708706 76.63124917 -0.52586682 70.47267839 -0.48259836 64.31408405 C-0.43307407 57.29828307 -0.37821269 50.28252693 -0.32291877 43.26676941 C-0.20937044 28.84455545 -0.10247317 14.42229685 0 0 Z " fill="#001233" transform="translate(332,93)"/>
<path d="M0 0 C0.33 0 0.66 0 1 0 C1.01030746 1.15622864 1.02061493 2.31245728 1.03123474 3.50372314 C1.12893035 14.39247736 1.23166087 25.28117393 1.33933926 36.16983414 C1.39453729 41.76798792 1.44795239 47.36614695 1.49731445 52.96435547 C1.5450039 58.36547152 1.5973485 63.76652411 1.65294075 69.16756439 C1.67334352 71.22964653 1.69206003 73.29174606 1.70907402 75.35385895 C1.73316393 78.23889965 1.76321239 81.1238207 1.79467773 84.00878906 C1.80331093 85.29164543 1.80331093 85.29164543 1.81211853 86.60041809 C1.82190735 87.38843307 1.83169617 88.17644806 1.84178162 88.98834229 C1.84823417 89.67046909 1.85468672 90.3525959 1.8613348 91.05539322 C2.00950852 93.13334522 2.47721329 94.98729542 3 97 C3.06624507 98.74886981 3.08552595 100.50002748 3.0625 102.25 C3.05347656 103.14203125 3.04445313 104.0340625 3.03515625 104.953125 C3.02355469 105.62859375 3.01195312 106.3040625 3 107 C2.01 107 1.02 107 0 107 C-1.65 111.62 -3.3 116.24 -5 121 C-4.34 121.33 -3.68 121.66 -3 122 C-3.78375 122.61875 -4.5675 123.2375 -5.375 123.875 C-8.69771114 126.52596853 -8.69771114 126.52596853 -11 130 C-13.0625 130.625 -13.0625 130.625 -15 131 C-15 127.28825246 -14.03018031 126.41277414 -11.8125 123.5 C-4.12428879 112.82365812 -0.71257274 102.05040332 -0.68115234 89.00390625 C-0.67110672 88.03713455 -0.6610611 87.07036285 -0.65071106 86.07429504 C-0.62001354 82.90370231 -0.60288134 79.7331935 -0.5859375 76.5625 C-0.56721505 74.35432215 -0.54764084 72.14615137 -0.5272522 69.93798828 C-0.47603887 64.14471618 -0.43635537 58.35142092 -0.39910889 52.55804443 C-0.35900146 46.63889892 -0.3079399 40.71984889 -0.2578125 34.80078125 C-0.16118109 23.20058801 -0.07673548 11.60034072 0 0 Z " fill="#153165" transform="translate(283,111)"/>
<path d="M0 0 C0.99 0.33 1.98 0.66 3 1 C3.33 2.98 3.66 4.96 4 7 C-1.75 9 -1.75 9 -4 9 C-3.67 11.97 -3.34 14.94 -3 18 C-3.66 18 -4.32 18 -5 18 C-5.2475 18.763125 -5.495 19.52625 -5.75 20.3125 C-7 23 -7 23 -9 24.375 C-11.99234482 26.80628017 -12.29614129 29.28874498 -13 33 C-12.70480232 35.7336432 -12.70480232 35.7336432 -12 38 C-12 38.66 -12 39.32 -12 40 C-12.80824219 40.67417969 -13.61648437 41.34835938 -14.44921875 42.04296875 C-17.93309598 46.08170545 -17.77577505 49.14244314 -17.8125 54.3125 C-17.83763672 55.14845703 -17.86277344 55.98441406 -17.88867188 56.84570312 C-17.9472699 58.89663409 -17.97656493 60.94836593 -18 63 C-18.33 63 -18.66 63 -19 63 C-20.04011068 39.56283937 -15.36672601 18.44007121 0 0 Z " fill="#071940" transform="translate(155,144)"/>
<path d="M0 0 C1.08087891 0.03544922 2.16175781 0.07089844 3.27539062 0.10742188 C8.56986616 0.32518115 13.24408288 0.57382252 18.1875 2.6875 C18.1875 3.0175 18.1875 3.3475 18.1875 3.6875 C7.9575 3.6875 -2.2725 3.6875 -12.8125 3.6875 C-12.79678955 6.63413574 -12.7810791 9.58077148 -12.76489258 12.61669922 C-12.71508126 22.37555623 -12.68200493 32.13441901 -12.65706348 41.89336967 C-12.64143823 47.80756251 -12.62025727 53.72162459 -12.58618164 59.63574219 C-12.55347631 65.34807742 -12.53562338 71.06028722 -12.52786827 76.77270889 C-12.52234481 78.94709369 -12.51155898 81.12147198 -12.49530983 83.29580307 C-12.47338717 86.35213563 -12.47053928 89.40795636 -12.47192383 92.46435547 C-12.45574509 93.799011 -12.45574509 93.799011 -12.4392395 95.16062927 C-12.46977009 101.4292415 -13.73205682 106.78437918 -15.8125 112.6875 C-16.4725 112.6875 -17.1325 112.6875 -17.8125 112.6875 C-17.30623408 109.90303745 -16.68822328 107.31641836 -15.78762817 104.62730408 C-14.46239075 100.00570545 -14.54770112 95.4898551 -14.58544922 90.71313477 C-14.58501114 89.2485659 -14.58501114 89.2485659 -14.58456421 87.75440979 C-14.58595108 84.54581638 -14.60148208 81.33745881 -14.6171875 78.12890625 C-14.62091991 75.89688748 -14.62376581 73.66486707 -14.62576294 71.43284607 C-14.63338141 65.57206663 -14.6530146 59.71138708 -14.6751709 53.85064697 C-14.6956678 47.86463777 -14.70477288 41.87861235 -14.71484375 35.89257812 C-14.73626214 24.15750831 -14.77037654 12.42251248 -14.8125 0.6875 C-9.96699373 -0.92766876 -5.05956429 -0.21790454 0 0 Z " fill="#5D82D0" transform="translate(295.8125,107.3125)"/>
<path d="M0 0 C0 37.95 0 75.9 0 115 C-0.33 115 -0.66 115 -1 115 C-1 78.04 -1 41.08 -1 3 C-4.00015912 1.99994696 -5.97423756 1.88424415 -9.10546875 1.90234375 C-10.57983398 1.90717773 -10.57983398 1.90717773 -12.08398438 1.91210938 C-13.62022461 1.92467773 -13.62022461 1.92467773 -15.1875 1.9375 C-16.22326172 1.94201172 -17.25902344 1.94652344 -18.32617188 1.95117188 C-20.88417266 1.9629599 -23.44205733 1.97941485 -26 2 C-26 2.66 -26 3.32 -26 4 C-27.794375 4.185625 -27.794375 4.185625 -29.625 4.375 C-32.34817527 4.70580826 -34.49875029 5.1695751 -37.125 6.0625 C-40.23776136 7.07753088 -42.7477089 7.154871 -46 7 C-42.53329775 5.08170074 -38.99031466 4.02107557 -35.1875 2.9375 C-34.00542969 2.59589844 -32.82335937 2.25429687 -31.60546875 1.90234375 C-20.75305192 -0.8136999 -11.77195658 0 0 0 Z " fill="#6386DB" transform="translate(234,93)"/>
<path d="M0 0 C0.33 1.32 0.66 2.64 1 4 C23.44 4 45.88 4 69 4 C69 4.66 69 5.32 69 6 C60.51576915 6.17745581 52.03142288 6.34337469 43.54669094 6.49477577 C39.60643081 6.5654437 35.66632648 6.64000757 31.72631836 6.72363281 C27.92039489 6.80426617 24.11440604 6.8744594 20.30815315 6.93757248 C18.859711 6.96339473 17.41132957 6.99290894 15.96304131 7.02626419 C13.92649216 7.07252196 11.89011794 7.10536414 9.85327148 7.13525391 C8.69633286 7.15746002 7.53939423 7.17966614 6.34739685 7.20254517 C2.57935645 6.97454759 -0.41850026 6.15612139 -4 5 C-3.34 4.67 -2.68 4.34 -2 4 C-2 3.01 -2 2.02 -2 1 C-1.34 0.67 -0.68 0.34 0 0 Z " fill="#021740" transform="translate(116,303)"/>
<path d="M0 0 C0.33 0 0.66 0 1 0 C1.00331015 0.70937147 1.00662029 1.41874294 1.01003075 2.14961052 C1.09116845 19.39157052 1.1832303 36.63343726 1.28752708 53.87527275 C1.33769891 62.21321646 1.38414119 70.55115011 1.421875 78.88916016 C1.4547642 86.15458582 1.49457819 93.41993445 1.54279006 100.6852752 C1.56808577 104.53401441 1.58985783 108.38270232 1.60334396 112.23150253 C1.61613664 115.85122089 1.63816034 119.47076357 1.66738319 123.09038544 C1.68083163 125.0580559 1.68438587 127.02578612 1.68769836 128.99349976 C1.69886185 130.15740234 1.71002533 131.32130493 1.7215271 132.52047729 C1.72982324 134.0442011 1.72982324 134.0442011 1.73828697 135.5987072 C1.76640428 138.18395855 1.76640428 138.18395855 4 140 C3.34 140.99 2.68 141.98 2 143 C1.34 143 0.68 143 0 143 C0 95.81 0 48.62 0 0 Z " fill="#5F86D7" transform="translate(266,97)"/>
<path d="M0 0 C0.103125 0.639375 0.20625 1.27875 0.3125 1.9375 C0.6528125 2.9584375 0.6528125 2.9584375 1 4 C1.99 4.33 2.98 4.66 4 5 C1.35096247 5.60549429 -0.9612368 6.00090147 -3.6875 5.9375 C-6.19860219 5.74010576 -6.19860219 5.74010576 -8 8 C-8.16687448 10.58354218 -8.16687448 10.58354218 -8 13 C-10.31 13.66 -12.62 14.32 -15 15 C-15.33 16.98 -15.66 18.96 -16 21 C-19.63 21.33 -23.26 21.66 -27 22 C-22.53005887 14.07601344 -9.67292556 0 0 0 Z " fill="#05183C" transform="translate(183,122)"/>
<path d="M0 0 C0.66 0 1.32 0 2 0 C2.33 0.66 2.66 1.32 3 2 C5.01669827 3.13350534 5.01669827 3.13350534 7 4 C4.22892973 6.99548794 0.99459245 9.36348992 -2.25 11.8125 C-6.96751353 15.40298268 -11.55540217 19.07221587 -16 23 C-17.10392951 19.21624161 -16.89992886 17.54077652 -15 14 C-12.27064296 10.91151703 -9.83976377 8.5643482 -6 7 C-5.01 7.66 -4.02 8.32 -3 9 C-2.34 9 -1.68 9 -1 9 C-1 8.34 -1 7.68 -1 7 C-0.34 7 0.32 7 1 7 C0.34 5.02 -0.32 3.04 -1 1 C-0.67 0.67 -0.34 0.34 0 0 Z " fill="#031331" transform="translate(161,105)"/>
<path d="M0 0 C0 0.66 0 1.32 0 2 C-0.68707031 2.26554687 -1.37414062 2.53109375 -2.08203125 2.8046875 C-3.43361328 3.33449219 -3.43361328 3.33449219 -4.8125 3.875 C-5.70582031 4.22304688 -6.59914062 4.57109375 -7.51953125 4.9296875 C-10.17711591 5.98832155 -10.17711591 5.98832155 -13 8 C-12.01 8.66 -11.02 9.32 -10 10 C-11.65 10 -13.3 10 -15 10 C-15 9.34 -15 8.68 -15 8 C-15.99 8.33 -16.98 8.66 -18 9 C-18.57363281 8.8453125 -19.14726562 8.690625 -19.73828125 8.53125 C-22.97190233 7.77171206 -25.88762057 8.20398635 -29.1875 8.5 C-34.95676098 8.97020213 -40.27716202 8.903606 -46 8 C-46 7.34 -46 6.68 -46 6 C-44.83726562 5.96261719 -43.67453125 5.92523438 -42.4765625 5.88671875 C-33.98245494 5.55857796 -25.6384298 4.98059878 -17.25 3.5625 C-16.52506348 3.44028076 -15.80012695 3.31806152 -15.05322266 3.19213867 C-11.6794925 2.58853826 -8.39943979 1.86576572 -5.109375 0.90234375 C-2 0 -2 0 0 0 Z " fill="#02112E" transform="translate(261,301)"/>
<path d="M0 0 C1.32 0.66 2.64 1.32 4 2 C3.814375 2.598125 3.62875 3.19625 3.4375 3.8125 C2.77906313 6.16408762 2.77906313 6.16408762 4 9 C3.75316617 11.75489248 3.4470867 14.45239581 3.0625 17.1875 C2.96259766 17.93708984 2.86269531 18.68667969 2.75976562 19.45898438 C2.51260359 21.30681482 2.25710389 23.1535266 2 25 C1.67 25 1.34 25 1 25 C0.505 15.1 0.505 15.1 0 5 C-7.26 5 -14.52 5 -22 5 C-22 4.67 -22 4.34 -22 4 C-14.58851545 2.71702277 -7.52719602 1.74484081 0 2 C0 1.34 0 0.68 0 0 Z " fill="#021333" transform="translate(235,88)"/>
<path d="M0 0 C0.66 0.33 1.32 0.66 2 1 C-3.92138212 9.7830835 -10.17871915 18.8553611 -19 25 C-19.66 25 -20.32 25 -21 25 C-20.67 23.68 -20.34 22.36 -20 21 C-19.34 21 -18.68 21 -18 21 C-17.731875 20.38125 -17.46375 19.7625 -17.1875 19.125 C-16 17 -16 17 -13 15 C-12.34 15.33 -11.68 15.66 -11 16 C-10.45627049 12.94152152 -10 10.11227195 -10 7 C-6.535 6.505 -6.535 6.505 -3 6 C-2.67 4.68 -2.34 3.36 -2 2 C-1.34 2 -0.68 2 0 2 C0 1.34 0 0.68 0 0 Z " fill="#06193E" transform="translate(299,246)"/>
<path d="M0 0 C21.78 0 43.56 0 66 0 C65.67 0.99 65.34 1.98 65 3 C64.505 2.505 64.505 2.505 64 2 C62.1496865 1.89565888 60.29537962 1.86145383 58.44213867 1.85473633 C57.25387985 1.84835648 56.06562103 1.84197662 54.84135437 1.83540344 C52.89927849 1.83373421 52.89927849 1.83373421 50.91796875 1.83203125 C49.5837653 1.82881956 48.2495622 1.82545556 46.9153595 1.82194519 C44.11340519 1.81594653 41.31148176 1.81410595 38.50952148 1.81469727 C34.92153211 1.81479871 31.33374141 1.80116833 27.74579906 1.78392506 C24.98768712 1.77279523 22.22962296 1.77077839 19.47149086 1.77130699 C17.50614075 1.76955415 15.54080556 1.75871564 13.57548523 1.74775696 C12.37776993 1.75083359 11.18005463 1.75391022 9.94604492 1.75708008 C8.89205002 1.75565506 7.83805511 1.75423004 6.75212097 1.75276184 C3.99368111 2.00056766 2.34918703 2.57924342 0 4 C0 2.68 0 1.36 0 0 Z " fill="#6584C6" transform="translate(266,93)"/>
<path d="M0 0 C1.09731445 0.00676758 1.09731445 0.00676758 2.21679688 0.01367188 C3.99873419 0.02531852 5.78062863 0.04324809 7.5625 0.0625 C8.0575 1.0525 8.0575 1.0525 8.5625 2.0625 C1.3025 2.0625 -5.9575 2.0625 -13.4375 2.0625 C-13.4375 2.7225 -13.4375 3.3825 -13.4375 4.0625 C-15.231875 4.248125 -15.231875 4.248125 -17.0625 4.4375 C-19.78567527 4.76830826 -21.93625029 5.2320751 -24.5625 6.125 C-27.67526136 7.14003088 -30.1852089 7.217371 -33.4375 7.0625 C-29.97079775 5.14420074 -26.42781466 4.08357557 -22.625 3 C-21.44292969 2.65839844 -20.26085937 2.31679687 -19.04296875 1.96484375 C-12.63548568 0.36123748 -6.56041144 -0.07802868 0 0 Z " fill="#597CC6" transform="translate(221.4375,92.9375)"/>
<path d="M0 0 C0.66 0.33 1.32 0.66 2 1 C0.62516343 5.81192798 -1.5022732 9.73632195 -4.25 13.875 C-4.64896484 14.4848877 -5.04792969 15.09477539 -5.45898438 15.72314453 C-11.74725739 25.25934599 -11.74725739 25.25934599 -15 29 C-15.33 29 -15.66 29 -16 29 C-16 26.69 -16 24.38 -16 22 C-15.360625 21.87625 -14.72125 21.7525 -14.0625 21.625 C-13.381875 21.41875 -12.70125 21.2125 -12 21 C-11.67 20.34 -11.34 19.68 -11 19 C-10.34 19 -9.68 19 -9 19 C-8.814375 17.7934375 -8.814375 17.7934375 -8.625 16.5625 C-8.41875 15.716875 -8.2125 14.87125 -8 14 C-7.34 13.67 -6.68 13.34 -6 13 C-5.09656316 11.11736119 -5.09656316 11.11736119 -4.375 8.9375 C-4.11460937 8.20402344 -3.85421875 7.47054687 -3.5859375 6.71484375 C-3.39257812 6.14894531 -3.19921875 5.58304688 -3 5 C-2.34 5 -1.68 5 -1 5 C-0.67 3.35 -0.34 1.7 0 0 Z " fill="#5D7ECE" transform="translate(320,243)"/>
<path d="M0 0 C1.32 0 2.64 0 4 0 C4 0.66 4 1.32 4 2 C4.66 2 5.32 2 6 2 C6 2.66 6 3.32 6 4 C5.13375 4.0928125 5.13375 4.0928125 4.25 4.1875 C0.17399161 5.65939192 -1.67635257 9.51452885 -4 13 C-5.32520503 13.68268138 -6.65812182 14.3507041 -8 15 C-8.33 15.66 -8.66 16.32 -9 17 C-9.66 17 -10.32 17 -11 17 C-11.33 15.35 -11.66 13.7 -12 12 C-11.05125 11.938125 -10.1025 11.87625 -9.125 11.8125 C-8.09375 11.544375 -7.0625 11.27625 -6 11 C-4.72412505 8.6859613 -4.72412505 8.6859613 -4 6 C-3.03126968 4.64377755 -2.03565785 3.30582947 -1 2 C-0.67 1.34 -0.34 0.68 0 0 Z " fill="#071941" transform="translate(180,156)"/>
<path d="M0 0 C0 2.64 0 5.28 0 8 C-0.66 8 -1.32 8 -2 8 C-2 20.87 -2 33.74 -2 47 C-2.33 47 -2.66 47 -3 47 C-3 33 -3 19 -3 5 C-3.99 4.67 -4.98 4.34 -6 4 C-1.125 0 -1.125 0 0 0 Z " fill="#8097DA" transform="translate(87,96)"/>
<path d="M0 0 C0.33 0.99 0.66 1.98 1 3 C-0.3125 5.1875 -0.3125 5.1875 -2 7 C-2.66 7 -3.32 7 -4 7 C-4.2475 7.5775 -4.495 8.155 -4.75 8.75 C-6.17199401 11.30958921 -7.90438527 12.96987323 -10 15 C-10.99 16.485 -10.99 16.485 -12 18 C-14.625 18.6875 -14.625 18.6875 -17 19 C-17 16 -17 16 -15.76245117 14.62133789 C-14.91130737 13.92899048 -14.91130737 13.92899048 -14.04296875 13.22265625 C-13.11581055 12.45211914 -13.11581055 12.45211914 -12.16992188 11.66601562 C-11.51572266 11.13685547 -10.86152344 10.60769531 -10.1875 10.0625 C-4.54497319 5.5602185 -4.54497319 5.5602185 0 0 Z " fill="#07173D" transform="translate(306,269)"/>
<path d="M0 0 C-10.55174614 3.24512115 -20.04163163 4.61680845 -31 3 C-31 2.34 -31 1.68 -31 1 C-29.081875 0.90912109 -29.081875 0.90912109 -27.125 0.81640625 C-25.4166589 0.73192784 -23.70832599 0.64728359 -22 0.5625 C-21.16082031 0.52318359 -20.32164062 0.48386719 -19.45703125 0.44335938 C-15.47867791 0.24289971 -11.56879324 -0.02785495 -7.625 -0.59765625 C-4.57987824 -0.93563851 -2.81212374 -1.0545464 0 0 Z " fill="#061D4A" transform="translate(246,306)"/>
<path d="M0 0 C0.33 0 0.66 0 1 0 C1.054138 2.24973447 1.09285491 4.49984383 1.125 6.75 C1.14820313 8.00296875 1.17140625 9.2559375 1.1953125 10.546875 C1.01051788 13.81404386 0.56651734 15.24466318 -1 18 C-0.979375 19.010625 -0.95875 20.02125 -0.9375 21.0625 C-1 24 -1 24 -2.375 25.625 C-3.179375 26.305625 -3.179375 26.305625 -4 27 C-5.17574711 29.09989652 -5.17574711 29.09989652 -6 31 C-7 29 -7 29 -6.07421875 26.015625 C-5.61532211 24.75919065 -5.15284512 23.50406033 -4.6875 22.25 C-2.07142262 14.88412682 -0.80436674 7.79155247 0 0 Z " fill="#091D49" transform="translate(331,210)"/>
<path d="M0 0 C1.109375 1.71484375 1.109375 1.71484375 2 4 C1.390625 6.25390625 1.390625 6.25390625 0.25 8.5625 C-0.11609375 9.32691406 -0.4821875 10.09132813 -0.859375 10.87890625 C-2 13 -2 13 -4 16 C-4.66 16 -5.32 16 -6 16 C-5.52412884 9.97229862 -2.80277043 5.23321711 0 0 Z " fill="#7E8EC3" transform="translate(75,108)"/>
<path d="M0 0 C0.66 0.33 1.32 0.66 2 1 C1.55635701 5.88007285 0.52243144 7.69772053 -3 11 C-3.144375 11.639375 -3.28875 12.27875 -3.4375 12.9375 C-4.31254494 16.14599812 -6.61072336 17.79451387 -9 20 C-9.66 19.67 -10.32 19.34 -11 19 C-10.54109375 18.29875 -10.0821875 17.5975 -9.609375 16.875 C-6.05198951 11.37450479 -2.79479035 5.92495554 0 0 Z " fill="#567FCB" transform="translate(307,234)"/>
<path d="M0 0 C0.66 0.33 1.32 0.66 2 1 C1.01 1.33 0.02 1.66 -1 2 C-1.33 2.99 -1.66 3.98 -2 5 C-5.5135709 7.61008124 -8.63239319 8.70882621 -13 9 C-13.66 8.34 -14.32 7.68 -15 7 C-12.54595776 5.80283341 -10.08748321 4.6170654 -7.625 3.4375 C-6.57699219 2.92413086 -6.57699219 2.92413086 -5.5078125 2.40039062 C-3.69947784 1.53969288 -1.85148044 0.76347564 0 0 Z " fill="#5B7ECD" transform="translate(186,100)"/>
<path d="M0 0 C7.75 0.875 7.75 0.875 10 2 C11.99960012 2.039992 14.00047242 2.04346799 16 2 C12.23140928 4.51239382 9.73760751 5.12663199 5.3125 5.0625 C4.10013672 5.04896484 4.10013672 5.04896484 2.86328125 5.03515625 C1.94095703 5.01775391 1.94095703 5.01775391 1 5 C0.67 3.35 0.34 1.7 0 0 Z " fill="#021533" transform="translate(240,281)"/>
<path d="M0 0 C0.66 0 1.32 0 2 0 C2.33 0.66 2.66 1.32 3 2 C5.01669827 3.13350534 5.01669827 3.13350534 7 4 C4.62226815 6.50085065 2.04733058 8.58683303 -0.6875 10.6875 C-1.49574219 11.31011719 -2.30398437 11.93273437 -3.13671875 12.57421875 C-3.75160156 13.04472656 -4.36648437 13.51523438 -5 14 C-5.33 13.01 -5.66 12.02 -6 11 C-5.34 10.34 -4.68 9.68 -4 9 C-3.01 9 -2.02 9 -1 9 C-1 8.34 -1 7.68 -1 7 C-0.34 7 0.32 7 1 7 C0.34 5.02 -0.32 3.04 -1 1 C-0.67 0.67 -0.34 0.34 0 0 Z " fill="#06173A" transform="translate(161,105)"/>
<path d="M0 0 C3.3 0 6.6 0 10 0 C9.34 1.98 8.68 3.96 8 6 C5.36 6 2.72 6 0 6 C0 4.02 0 2.04 0 0 Z " fill="#051129" transform="translate(280,256)"/>
<path d="M0 0 C0.66 0 1.32 0 2 0 C0.59014224 7.33126033 -2.51807217 13.43032485 -6 20 C-6.66 19.01 -7.32 18.02 -8 17 C-7 15 -7 15 -5 13 C-4.44184214 11.37296983 -3.94866855 9.72306132 -3.5 8.0625 C-2.61778163 4.80692244 -1.90242149 2.85363224 0 0 Z " fill="#061B44" transform="translate(308,226)"/>
<path d="M0 0 C0.33 0 0.66 0 1 0 C1.22174933 1.45635371 1.42698698 2.91522956 1.625 4.375 C1.74101562 5.18710938 1.85703125 5.99921875 1.9765625 6.8359375 C1.98429688 7.55007812 1.99203125 8.26421875 2 9 C1.34 9.66 0.68 10.32 0 11 C-0.36831081 12.93257855 -0.36831081 12.93257855 -0.4140625 15.1328125 C-0.45273438 15.93847656 -0.49140625 16.74414062 -0.53125 17.57421875 C-0.5621875 18.41597656 -0.593125 19.25773437 -0.625 20.125 C-0.66367188 20.97449219 -0.70234375 21.82398438 -0.7421875 22.69921875 C-0.83656494 24.79911684 -0.91937586 26.89952891 -1 29 C-1.33 29 -1.66 29 -2 29 C-2.05874776 25.66674246 -2.09384467 22.33362062 -2.125 19 C-2.14175781 18.06542969 -2.15851563 17.13085938 -2.17578125 16.16796875 C-2.21606145 10.40790037 -1.65416655 5.5225718 0 0 Z " fill="#061E4A" transform="translate(138,178)"/>
<path d="M0 0 C1.32 0.66 2.64 1.32 4 2 C3.21625 2.61875 2.4325 3.2375 1.625 3.875 C-1.69771114 6.52596853 -1.69771114 6.52596853 -4 10 C-6.0625 10.625 -6.0625 10.625 -8 11 C-8 8 -8 8 -6 5 C-5.01 5 -4.02 5 -3 5 C-2.690625 4.360625 -2.38125 3.72125 -2.0625 3.0625 C-1 1 -1 1 0 0 Z " fill="#051539" transform="translate(276,231)"/>
<path d="M0 0 C0.66 0 1.32 0 2 0 C1.814375 0.886875 1.62875 1.77375 1.4375 2.6875 C1.0162645 5.87685449 1.23024957 7.92099829 2 11 C2 11.66 2 12.32 2 13 C1.01 13.33 0.02 13.66 -1 14 C-2.65653686 12.34346314 -2.17106165 10.39349204 -2.1875 8.125 C-2.20167969 7.24070313 -2.21585938 6.35640625 -2.23046875 5.4453125 C-2 3 -2 3 0 0 Z " fill="#031537" transform="translate(141,171)"/>
<path d="M0 0 C6.27 0 12.54 0 19 0 C18.67 0.99 18.34 1.98 18 3 C15.37405216 2.8863485 12.74988453 2.75960946 10.125 2.625 C9.37863281 2.5940625 8.63226563 2.563125 7.86328125 2.53125 C2.2265625 2.2265625 2.2265625 2.2265625 0 0 Z " fill="#182647" transform="translate(68,306)"/>
<path d="M0 0 C0.66 0.66 1.32 1.32 2 2 C1.625 4.625 1.625 4.625 1 7 C0.34 7 -0.32 7 -1 7 C-1.66 10.96 -2.32 14.92 -3 19 C-3.66 19 -4.32 19 -5 19 C-4.5464821 11.97047248 -2.87940913 6.4150557 0 0 Z " fill="#577ECC" transform="translate(172,174)"/>
<path d="M0 0 C0.99 0.33 1.98 0.66 3 1 C2.67 1.66 2.34 2.32 2 3 C1.34 3 0.68 3 0 3 C-0.33 4.65 -0.66 6.3 -1 8 C-3.31 8.66 -5.62 9.32 -8 10 C-5.61820737 6.25718301 -3.25524265 3.02272532 0 0 Z " fill="#051B3E" transform="translate(164,134)"/>
<path d="M0 0 C0 0.66 0 1.32 0 2 C-2.31 2.66 -4.62 3.32 -7 4 C-7 4.66 -7 5.32 -7 6 C-11.455 6.495 -11.455 6.495 -16 7 C-14.49135291 3.98270581 -12.19537486 3.63407458 -9.125 2.375 C-8.05507812 1.92898437 -6.98515625 1.48296875 -5.8828125 1.0234375 C-3 0 -3 0 0 0 Z " fill="#07204B" transform="translate(199,115)"/>
<path d="M0 0 C0 0.33 0 0.66 0 1 C-1.01320312 1.25394531 -2.02640625 1.50789063 -3.0703125 1.76953125 C-4.42196658 2.11683126 -5.77352401 2.46450759 -7.125 2.8125 C-7.79015625 2.97814453 -8.4553125 3.14378906 -9.140625 3.31445312 C-13.41048075 4.42377839 -17.06345376 5.96164 -21 8 C-21.66 8 -22.32 8 -23 8 C-23 7.34 -23 6.68 -23 6 C-20 4 -20 4 -16 4 C-16 3.34 -16 2.68 -16 2 C-10.54538831 0.61470179 -5.63281599 -0.2396943 0 0 Z " fill="#5A7FC9" transform="translate(208,112)"/>
<path d="M0 0 C0.33 0.99 0.66 1.98 1 3 C-3.83323235 7.14277059 -7.53597935 9.36937261 -14 9 C-11.03786426 6.69534766 -7.97847243 4.72409552 -4.75 2.8125 C-3.85796875 2.28269531 -2.9659375 1.75289063 -2.046875 1.20703125 C-1.03367187 0.60955078 -1.03367187 0.60955078 0 0 Z " fill="#5B7CCD" transform="translate(277,272)"/>
<path d="M0 0 C0.99 0.33 1.98 0.66 3 1 C2.61328125 1.49628906 2.2265625 1.99257812 1.828125 2.50390625 C-1.50270951 6.84883147 -4.39257462 11.18629161 -7 16 C-8 13 -8 13 -7.3125 10.5625 C-5.88828332 7.78188647 -4.23045754 6.16075574 -2 4 C-0.76487921 1.86690808 -0.76487921 1.86690808 0 0 Z " fill="#5A7ECE" transform="translate(155,140)"/>
<path d="M0 0 C0.33 0 0.66 0 1 0 C1.31461385 7.09629025 1.44572039 12.68284595 -2 19 C-2.33 19 -2.66 19 -3 19 C-3.33 15.7 -3.66 12.4 -4 9 C-3.01 9.33 -2.02 9.66 -1 10 C-0.67 6.7 -0.34 3.4 0 0 Z " fill="#031336" transform="translate(117,181)"/>
<path d="M0 0 C0.66 0 1.32 0 2 0 C2.25 2.25 2.25 2.25 2 5 C0.66666667 6.33333333 -0.66666667 7.66666667 -2 9 C-3.27765265 12.63543901 -3.27765265 12.63543901 -4 16 C-5.1796875 14.390625 -5.1796875 14.390625 -6 12 C-4.8828125 8.984375 -4.8828125 8.984375 -3.125 5.75 C-2.55007812 4.67234375 -1.97515625 3.5946875 -1.3828125 2.484375 C-0.92648438 1.66453125 -0.47015625 0.8446875 0 0 Z " fill="#567DCA" transform="translate(131,148)"/>
<path d="M0 0 C2.64 0 5.28 0 8 0 C4.55384615 5.78461538 4.55384615 5.78461538 1.75 6.875 C1.1725 6.91625 0.595 6.9575 0 7 C-1.125 2.25 -1.125 2.25 0 0 Z " fill="#050F28" transform="translate(137,128)"/>
<path d="M0 0 C0.99 0.99 1.98 1.98 3 3 C-2.28 5.31 -7.56 7.62 -13 10 C-13.33 9.34 -13.66 8.68 -14 8 C-13.24074219 7.59007813 -12.48148438 7.18015625 -11.69921875 6.7578125 C-10.70535156 6.21898438 -9.71148437 5.68015625 -8.6875 5.125 C-7.20830078 4.32449219 -7.20830078 4.32449219 -5.69921875 3.5078125 C-2.90413542 1.99277874 -2.90413542 1.99277874 0 0 Z " fill="#061B42" transform="translate(183,98)"/>
<path d="M0 0 C0.33 0 0.66 0 1 0 C0.94014621 2.29240007 0.85140973 4.58406206 0.75 6.875 C0.70359375 8.15117187 0.6571875 9.42734375 0.609375 10.7421875 C0 14 0 14 -2.046875 15.4453125 C-2.69140625 15.62835938 -3.3359375 15.81140625 -4 16 C-3.39891424 10.34979382 -1.92471317 5.33835539 0 0 Z " fill="#577CC9" transform="translate(124,163)"/>
<path d="M0 0 C-2.28814723 2.28814723 -3.80751622 2.75451161 -6.875 3.6875 C-7.73867188 3.95949219 -8.60234375 4.23148437 -9.4921875 4.51171875 C-12.08694932 5.01692938 -13.530785 4.85561171 -16 4 C-10.45834744 0.22695996 -6.65545792 -0.54330269 0 0 Z " fill="#5D7ED1" transform="translate(264,299)"/>
<path d="M0 0 C0.33 0 0.66 0 1 0 C0.97061497 6.47939848 -0.19826322 10.09043313 -4.72265625 14.78515625 C-5.14417969 15.18605469 -5.56570313 15.58695313 -6 16 C-6.66 15.67 -7.32 15.34 -8 15 C-7.38511719 14.00419922 -7.38511719 14.00419922 -6.7578125 12.98828125 C-6.21898437 12.10527344 -5.68015625 11.22226563 -5.125 10.3125 C-4.59132813 9.44238281 -4.05765625 8.57226562 -3.5078125 7.67578125 C-2.09359186 5.16608918 -1.00105211 2.69700931 0 0 Z " fill="#0D2355" transform="translate(279,220)"/>
<path d="M0 0 C0 0.33 0 0.66 0 1 C-6.66666667 2.33333333 -13.33333333 3.66666667 -20 5 C-20 4.01 -20 3.02 -20 2 C-13.1834265 0.2120463 -7.03482474 -0.23668569 0 0 Z " fill="#041746" transform="translate(213,93)"/>
<path d="M0 0 C-2.83430453 3.2542015 -4.68607774 4.5206753 -9 5 C-9.33 4.01 -9.66 3.02 -10 2 C-9.67 1.34 -9.34 0.68 -9 0 C-5.44307323 -0.85056945 -3.50729422 -1.16909807 0 0 Z " fill="#031329" transform="translate(192,122)"/>
<path d="M0 0 C3.41099168 0 6.63088314 0.49145406 10 1 C4.85714286 5.42857143 4.85714286 5.42857143 1 6 C0.67 4.02 0.34 2.04 0 0 Z " fill="#06183A" transform="translate(264,273)"/>
<path d="M0 0 C0.33 0 0.66 0 1 0 C1.3125 2.1875 1.3125 2.1875 1 5 C-1.375 7.625 -1.375 7.625 -4 10 C-4.66 10.99 -5.32 11.98 -6 13 C-6 8.64590465 -5.45344027 7.69295398 -3.0625 4.25 C-2.51722656 3.45078125 -1.97195312 2.6515625 -1.41015625 1.828125 C-0.94480469 1.22484375 -0.47945312 0.6215625 0 0 Z " fill="#577ECB" transform="translate(180,162)"/>
<path d="M0 0 C0 3.57575896 -1.08840607 5.05295935 -3 8 C-6.875 6.25 -6.875 6.25 -8 4 C-5.36 2.68 -2.72 1.36 0 0 Z " fill="#041836" transform="translate(277,293)"/>
<path d="M0 0 C0.66 0.33 1.32 0.66 2 1 C1.04801289 2.64951226 0.08820855 4.29451508 -0.875 5.9375 C-1.40867187 6.85402344 -1.94234375 7.77054688 -2.4921875 8.71484375 C-4 11 -4 11 -6 12 C-5.39294514 7.87202695 -4.06000669 4.62561178 -2 1 C-1.34 0.67 -0.68 0.34 0 0 Z " fill="#5D81CD" transform="translate(276,224)"/>
<path d="M0 0 C-0.33 0.66 -0.66 1.32 -1 2 C-3.72265625 2.4140625 -3.72265625 2.4140625 -7.0625 2.625 C-8.16722656 2.69976562 -9.27195313 2.77453125 -10.41015625 2.8515625 C-11.26480469 2.90054688 -12.11945313 2.94953125 -13 3 C-13 2.34 -13 1.68 -13 1 C-8.20862412 -0.6290678 -4.94367454 -1.20577428 0 0 Z " fill="#04102C" transform="translate(213,91)"/>
<path d="M0 0 C1.32 0 2.64 0 4 0 C4.33 1.98 4.66 3.96 5 6 C4.34 6 3.68 6 3 6 C3 6.66 3 7.32 3 8 C2.01 7.67 1.02 7.34 0 7 C0 4.69 0 2.38 0 0 Z " fill="#06102B" transform="translate(296,240)"/>
<path d="M0 0 C0.33 0 0.66 0 1 0 C1.05416188 1.60379341 1.09286638 3.20811406 1.125 4.8125 C1.14820313 5.70582031 1.17140625 6.59914062 1.1953125 7.51953125 C1 10 1 10 -1 13 C-1.66 13 -2.32 13 -3 13 C-2.01 8.71 -1.02 4.42 0 0 Z " fill="#577AC6" transform="translate(311,221)"/>
<path d="M0 0 C0.33 0 0.66 0 1 0 C1 3.3 1 6.6 1 10 C0.01 10 -0.98 10 -2 10 C-2.25 3.375 -2.25 3.375 0 0 Z " fill="#061225" transform="translate(308,216)"/>
<path d="M0 0 C0.33 0.99 0.66 1.98 1 3 C0.01 3 -0.98 3 -2 3 C-2 3.66 -2 4.32 -2 5 C-3.8125 6.0625 -3.8125 6.0625 -6 7 C-6.99 6.67 -7.98 6.34 -9 6 C-7.8803014 4.99406757 -6.7540588 3.9954151 -5.625 3 C-4.68527344 2.1646875 -4.68527344 2.1646875 -3.7265625 1.3125 C-2 0 -2 0 0 0 Z " fill="#587DCA" transform="translate(165,112)"/>
<path d="M0 0 C-0.33 0.99 -0.66 1.98 -1 3 C-3.8914086 4.1194613 -6.67762612 4.10768197 -9.75 4.0625 C-10.54921875 4.05347656 -11.3484375 4.04445313 -12.171875 4.03515625 C-12.77515625 4.02355469 -13.3784375 4.01195312 -14 4 C-14 3.67 -14 3.34 -14 3 C-12.0424015 2.49713066 -10.08389623 1.9977901 -8.125 1.5 C-7.03445312 1.2215625 -5.94390625 0.943125 -4.8203125 0.65625 C-2 0 -2 0 0 0 Z " fill="#5374BC" transform="translate(255,284)"/>
<path d="M0 0 C0 2.64 0 5.28 0 8 C-0.61875 7.525625 -1.2375 7.05125 -1.875 6.5625 C-3.90705546 4.97582559 -3.90705546 4.97582559 -6 4 C-1.125 0 -1.125 0 0 0 Z " fill="#7A8EBA" transform="translate(87,96)"/>
<path d="M0 0 C0 0.66 0 1.32 0 2 C-4.49656104 4.24828052 -8.07872966 4.16682272 -13 4 C-9.06512611 1.79647062 -4.5498921 0 0 0 Z " fill="#091C4E" transform="translate(261,301)"/>
<path d="M0 0 C1 4 1 4 0.00390625 5.921875 C-0.47175781 6.52515625 -0.94742187 7.1284375 -1.4375 7.75 C-1.91058594 8.36359375 -2.38367188 8.9771875 -2.87109375 9.609375 C-3.24363281 10.06828125 -3.61617188 10.5271875 -4 11 C-4.66 10.67 -5.32 10.34 -6 10 C-4.02 6.7 -2.04 3.4 0 0 Z " fill="#061B47" transform="translate(319,250)"/>
<path d="M0 0 C0.66 0.33 1.32 0.66 2 1 C0.02 3.97 -1.96 6.94 -4 10 C-4.33 8.68 -4.66 7.36 -5 6 C-4.34 6 -3.68 6 -3 6 C-2.67 4.68 -2.34 3.36 -2 2 C-1.34 2 -0.68 2 0 2 C0 1.34 0 0.68 0 0 Z " fill="#09204B" transform="translate(299,246)"/>
<path d="M0 0 C0.66 0.33 1.32 0.66 2 1 C-0.97 4.96 -0.97 4.96 -4 9 C-4.33 8.01 -4.66 7.02 -5 6 C-2.66666667 1.33333333 -2.66666667 1.33333333 0 0 Z " fill="#091636" transform="translate(80,99)"/>
<path d="M0 0 C1.32 0.66 2.64 1.32 4 2 C2.71034824 3.37562854 1.37310707 4.70766393 0 6 C-0.66 6 -1.32 6 -2 6 C-1.125 1.125 -1.125 1.125 0 0 Z " fill="#5C80DA" transform="translate(292,278)"/>
<path d="M0 0 C0.66 0.33 1.32 0.66 2 1 C1.67 2.32 1.34 3.64 1 5 C-1.31 5.66 -3.62 6.32 -6 7 C-5 4 -5 4 -3 2.9375 C-2.34 2.628125 -1.68 2.31875 -1 2 C-0.67 1.34 -0.34 0.68 0 0 Z " fill="#05132D" transform="translate(317,257)"/>
<path d="M0 0 C0.66 0 1.32 0 2 0 C1.01 3.3 0.02 6.6 -1 10 C-1.66 10 -2.32 10 -3 10 C-2.25 3.375 -2.25 3.375 0 0 Z " fill="#5C80CA" transform="translate(141,164)"/>
<path d="M0 0 C0.33 0 0.66 0 1 0 C0.67 4.29 0.34 8.58 0 13 C-0.33 13 -0.66 13 -1 13 C-2.42857143 4.57142857 -2.42857143 4.57142857 0 0 Z " fill="#0A2252" transform="translate(119,175)"/>
<path d="M0 0 C-0.33 1.32 -0.66 2.64 -1 4 C-1.639375 4.12375 -2.27875 4.2475 -2.9375 4.375 C-3.9584375 4.684375 -3.9584375 4.684375 -5 5 C-5.33 5.66 -5.66 6.32 -6 7 C-6 4 -6 4 -4.125 1.8125 C-2 0 -2 0 0 0 Z " fill="#5679C4" transform="translate(156,119)"/>
<path d="M0 0 C-2.93828597 2.50298434 -5.17902761 3.46930939 -9 4 C-9.33 3.34 -9.66 2.68 -10 2 C-6.49223216 0.39644899 -3.85645121 -0.22036864 0 0 Z " fill="#041C42" transform="translate(265,279)"/>
<path d="M0 0 C0.66 0.99 1.32 1.98 2 3 C1.01 3.99 0.02 4.98 -1 6 C-1.99 5.67 -2.98 5.34 -4 5 C-2.68 3.35 -1.36 1.7 0 0 Z " fill="#587BC6" transform="translate(293,257)"/>
<path d="M0 0 C-1.65 1.65 -3.3 3.3 -5 5 C-5.33 3.35 -5.66 1.7 -6 0 C-3 -1 -3 -1 0 0 Z " fill="#05183D" transform="translate(145,129)"/>
<path d="M0 0 C0.99 0.33 1.98 0.66 3 1 C0.36 2.98 -2.28 4.96 -5 7 C-4.67 5.35 -4.34 3.7 -4 2 C-2.68 2 -1.36 2 0 2 C0 1.34 0 0.68 0 0 Z " fill="#051D44" transform="translate(160,112)"/>
<path d="M0 0 C0.66 0 1.32 0 2 0 C2.66 1.32 3.32 2.64 4 4 C1 5 1 5 -1.1875 4.0625 C-1.785625 3.711875 -2.38375 3.36125 -3 3 C-2.01 2.67 -1.02 2.34 0 2 C0 1.34 0 0.68 0 0 Z " fill="#011527" transform="translate(166,104)"/>
<path d="M0 0 C0.33 0 0.66 0 1 0 C1 2.31 1 4.62 1 7 C-0.98 7.99 -0.98 7.99 -3 9 C-2.01 6.03 -1.02 3.06 0 0 Z " fill="#091C4D" transform="translate(323,241)"/>
<path d="M0 0 C0.99 0.33 1.98 0.66 3 1 C2.67 1.66 2.34 2.32 2 3 C1.34 3 0.68 3 0 3 C-0.33 3.99 -0.66 4.98 -1 6 C-1.99 5.34 -2.98 4.68 -4 4 C-2.68 2.68 -1.36 1.36 0 0 Z " fill="#0D2952" transform="translate(164,134)"/>
<path d="M0 0 C-0.33 0.66 -0.66 1.32 -1 2 C-3.9375 2.75 -3.9375 2.75 -7 3 C-7.66 2.34 -8.32 1.68 -9 1 C-6.04335481 -0.4783226 -3.25770263 -0.06032783 0 0 Z " fill="#577FDA" transform="translate(180,106)"/>
</svg>
